<?xml version="1.0" encoding="UTF-8" standalone="no"?>
<!-- Created with Inkscape (http://www.inkscape.org/) -->

<svg
   xmlns:dc="http://purl.org/dc/elements/1.1/"
   xmlns:cc="http://creativecommons.org/ns#"
   xmlns:rdf="http://www.w3.org/1999/02/22-rdf-syntax-ns#"
   xmlns:svg="http://www.w3.org/2000/svg"
   xmlns="http://www.w3.org/2000/svg"
   version="1.2"
   width="652.09308"
   height="103.24484"
   id="svg2">
  <defs
     id="defs4">
    <marker
       refX="0"
       refY="0"
       orient="auto"
       id="Arrow1Lstart"
       style="overflow:visible">
      <path
         d="M 0,0 5,-5 -12.5,0 5,5 0,0 z"
         transform="matrix(0.8,0,0,0.8,10,0)"
         id="path5098"
         style="fill-rule:evenodd;stroke:#000000;stroke-width:1pt;marker-start:none" />
    </marker>
    <marker
       refX="0"
       refY="0"
       orient="auto"
       id="Arrow1Lend"
       style="overflow:visible">
      <path
         d="M 0,0 5,-5 -12.5,0 5,5 0,0 z"
         transform="matrix(-0.8,0,0,-0.8,-10,0)"
         id="path5101"
         style="fill-rule:evenodd;stroke:#000000;stroke-width:1pt;marker-start:none" />
    </marker>
  </defs>
  <metadata
     id="metadata7">
    <rdf:RDF>
      <cc:Work
         rdf:about="">
        <dc:format>image/svg+xml</dc:format>
        <dc:type
           rdf:resource="http://purl.org/dc/dcmitype/StillImage" />
        <dc:title></dc:title>
      </cc:Work>
    </rdf:RDF>
  </metadata>
  <g
     transform="translate(-45.011179,-282.43618)"
     id="layer1">
    <g
       transform="matrix(0.92695816,0,0,0.96124301,34.729359,269.1941)"
       id="g3603">
      <rect
         width="703.47626"
         height="107.40764"
         x="11.092"
         y="13.776"
         id="rect3305" />
      <rect
         width="120.567"
         height="82.710999"
         x="261.819"
         y="27.252001"
         id="rect3307"
         style="fill:#282829" />
      <rect
         width="120.567"
         height="82.710999"
         x="18.184"
         y="27.252001"
         id="rect3309"
         style="fill:#282829" />
      <g
         id="g3311">
        <rect
           width="20.384001"
           height="14.684"
           x="39.460999"
           y="57.294998"
           id="rect3313"
           style="fill:#ffffff" />
        <rect
           width="20.384001"
           height="14.684"
           x="39.460999"
           y="74.899002"
           id="rect3315"
           style="fill:#ffffff" />
        <rect
           width="20.384001"
           height="14.684"
           x="67.875"
           y="57.294998"
           id="rect3317"
           style="fill:#ffffff" />
        <rect
           width="20.384001"
           height="14.684"
           x="67.875"
           y="74.899002"
           id="rect3319"
           style="fill:#ffffff" />
        <rect
           width="20.384001"
           height="14.684"
           x="90.871002"
           y="57.294998"
           id="rect3321"
           style="fill:#ffffff" />
        <rect
           width="20.384001"
           height="14.684"
           x="90.871002"
           y="74.899002"
           id="rect3323"
           style="fill:#ffffff" />
      </g>
      <rect
         width="120.567"
         height="82.711998"
         x="140.002"
         y="27.250999"
         id="rect3325"
         style="fill:#282829" />
      <g
         id="g3327">
        <rect
           width="20.355"
           height="14.663"
           x="190.091"
           y="57.294998"
           id="rect3329"
           style="fill:#ffffff" />
        <rect
           width="20.355"
           height="14.663"
           x="190.091"
           y="74.875999"
           id="rect3331"
           style="fill:#ffffff" />
      </g>
      <rect
         width="120.568"
         height="82.710999"
         x="383.63699"
         y="27.252001"
         id="rect3333"
         style="fill:#282829" />
      <g
         id="g3335">
        <rect
           width="20.414"
           height="14.706"
           x="399.04401"
           y="57.27"
           id="rect3337"
           style="fill:#ffffff" />
        <rect
           width="20.414"
           height="14.704"
           x="399.04401"
           y="74.903"
           id="rect3339"
           style="fill:#ffffff" />
        <rect
           width="20.414"
           height="14.706"
           x="423.16901"
           y="57.27"
           id="rect3341"
           style="fill:#ffffff" />
        <rect
           width="20.414"
           height="14.704"
           x="423.16901"
           y="74.903"
           id="rect3343"
           style="fill:#ffffff" />
        <rect
           width="20.415001"
           height="14.706"
           x="446.69199"
           y="57.27"
           id="rect3345"
           style="fill:#ffffff" />
        <rect
           width="20.415001"
           height="14.704"
           x="446.69199"
           y="74.903"
           id="rect3347"
           style="fill:#ffffff" />
        <rect
           width="20.414"
           height="14.706"
           x="470.82001"
           y="57.27"
           id="rect3349"
           style="fill:#ffffff" />
        <rect
           width="20.414"
           height="14.704"
           x="470.82001"
           y="74.903"
           id="rect3351"
           style="fill:#ffffff" />
      </g>
      <rect
         width="120.568"
         height="82.710999"
         x="505.45401"
         y="27.252001"
         id="rect3353"
         style="fill:#282829" />
      <g
         id="g3355">
        <rect
           width="20.399"
           height="14.695"
           x="519.67603"
           y="57.280998"
           id="rect3357"
           style="fill:#ffffff" />
        <rect
           width="20.399"
           height="14.695"
           x="519.67603"
           y="74.901001"
           id="rect3359"
           style="fill:#ffffff" />
        <rect
           width="20.399"
           height="14.695"
           x="543.78497"
           y="57.280998"
           id="rect3361"
           style="fill:#ffffff" />
        <rect
           width="20.399"
           height="14.695"
           x="543.78497"
           y="74.901001"
           id="rect3363"
           style="fill:#ffffff" />
        <rect
           width="20.400999"
           height="14.695"
           x="567.29102"
           y="57.280998"
           id="rect3365"
           style="fill:#ffffff" />
        <rect
           width="20.400999"
           height="14.695"
           x="567.29102"
           y="74.901001"
           id="rect3367"
           style="fill:#ffffff" />
        <rect
           width="20.399"
           height="14.695"
           x="591.40198"
           y="57.280998"
           id="rect3369"
           style="fill:#ffffff" />
        <rect
           width="20.399"
           height="14.695"
           x="591.40198"
           y="74.901001"
           id="rect3371"
           style="fill:#ffffff" />
      </g>
      <text
         transform="translate(406.9951,52.9463)"
         id="text3373"
         style="font-size:9px;fill:#ffffff;font-family:MyriadPro-Regular">2</text>
      <text
         transform="translate(430.9463,52.9463)"
         id="text3375"
         style="font-size:9px;fill:#ffffff;font-family:MyriadPro-Regular">4</text>
      <text
         transform="translate(454.6055,52.9463)"
         id="text3377"
         style="font-size:9px;fill:#ffffff;font-family:MyriadPro-Regular">6</text>
      <text
         transform="translate(478.5557,52.9463)"
         id="text3379"
         style="font-size:9px;fill:#ffffff;font-family:MyriadPro-Regular">8</text>
      <text
         transform="translate(526.5625,52.9463)"
         id="text3381"
         style="font-size:9px;fill:#ffffff;font-family:MyriadPro-Regular">2</text>
      <text
         transform="translate(550.2227,52.9463)"
         id="text3383"
         style="font-size:9px;fill:#ffffff;font-family:MyriadPro-Regular">4</text>
      <text
         transform="translate(574.4629,52.9463)"
         id="text3385"
         style="font-size:9px;fill:#ffffff;font-family:MyriadPro-Regular">6</text>
      <text
         transform="translate(599.832,52.9463)"
         id="text3387"
         style="font-size:9px;fill:#ffffff;font-family:MyriadPro-Regular">8</text>
      <g
         id="g3389">
        <path
           d="m 398.581,39.649 c 0,-0.701 0.404,-1.188 1.044,-1.467 v -0.027 c -0.567,-0.288 -0.847,-0.766 -0.847,-1.278 0,-0.99 0.892,-1.647 2.063,-1.647 1.367,0 1.936,0.792 1.936,1.504 0,0.504 -0.271,0.998 -0.847,1.287 v 0.027 c 0.567,0.215 1.071,0.701 1.071,1.458 0,1.062 -0.892,1.773 -2.251,1.773 -1.485,0 -2.169,-0.837 -2.169,-1.63 z m 3.024,-0.045 c 0,-0.514 -0.378,-0.818 -0.919,-0.963 -0.449,0.126 -0.711,0.449 -0.711,0.873 -0.009,0.424 0.315,0.819 0.828,0.819 0.487,0.001 0.802,-0.314 0.802,-0.729 z m -1.54,-2.772 c 0,0.396 0.361,0.647 0.828,0.792 0.316,-0.09 0.595,-0.378 0.595,-0.747 0,-0.36 -0.207,-0.72 -0.711,-0.72 -0.467,0 -0.712,0.306 -0.712,0.675 z"
           id="path3391"
           style="fill:#ffffff" />
        <path
           d="m 407.077,41.181 -0.549,-1.099 c -0.225,-0.423 -0.369,-0.738 -0.54,-1.089 h -0.019 c -0.125,0.351 -0.278,0.666 -0.467,1.089 l -0.505,1.099 h -1.566 l 1.755,-3.07 -1.691,-2.998 h 1.575 l 0.53,1.107 c 0.181,0.369 0.316,0.666 0.46,1.008 h 0.019 c 0.144,-0.387 0.26,-0.656 0.414,-1.008 l 0.513,-1.107 h 1.566 l -1.71,2.962 1.8,3.106 h -1.585 z"
           id="path3393"
           style="fill:#ffffff" />
        <path
           d="m 410.929,36.544 h -0.018 l -1.117,0.531 -0.225,-1.026 1.549,-0.72 h 1.135 v 5.852 h -1.324 v -4.637 z"
           id="path3395"
           style="fill:#ffffff" />
        <path
           d="m 418.499,38.228 c 0,1.809 -0.729,3.052 -2.225,3.052 -1.512,0 -2.178,-1.359 -2.188,-3.017 0,-1.691 0.721,-3.033 2.233,-3.033 1.568,-10e-4 2.18,1.395 2.18,2.998 z m -3.034,0.035 c -0.009,1.342 0.315,1.98 0.847,1.98 0.532,0 0.818,-0.666 0.818,-1.998 0,-1.297 -0.279,-1.98 -0.828,-1.98 -0.504,0 -0.846,0.638 -0.837,1.998 z"
           id="path3397"
           style="fill:#ffffff" />
        <path
           d="m 424.457,40.901 c -0.423,0.144 -1.224,0.342 -2.025,0.342 -1.107,0 -1.909,-0.279 -2.467,-0.819 -0.558,-0.522 -0.864,-1.314 -0.855,-2.206 0.009,-2.016 1.477,-3.168 3.466,-3.168 0.783,0 1.387,0.152 1.684,0.297 l -0.287,1.098 c -0.334,-0.144 -0.748,-0.261 -1.414,-0.261 -1.144,0 -2.008,0.648 -2.008,1.963 0,1.251 0.783,1.989 1.908,1.989 0.315,0 0.568,-0.035 0.676,-0.09 v -1.27 h -0.937 v -1.071 h 2.26 v 3.196 z"
           id="path3399"
           style="fill:#ffffff" />
        <path
           d="m 425.472,41.181 c 0.019,-0.289 0.037,-0.82 0.037,-1.314 v -5.078 h 1.367 V 37.3 h 0.019 c 0.261,-0.378 0.72,-0.621 1.333,-0.621 1.053,0 1.827,0.873 1.818,2.224 0,1.585 -1.009,2.377 -2.018,2.377 -0.513,0 -1.008,-0.188 -1.322,-0.712 h -0.019 l -0.054,0.613 h -1.161 z m 1.404,-1.873 c 0,0.09 0.01,0.171 0.027,0.243 0.09,0.369 0.405,0.647 0.801,0.647 0.586,0 0.945,-0.449 0.945,-1.242 0,-0.684 -0.306,-1.225 -0.945,-1.225 -0.368,0 -0.711,0.279 -0.801,0.676 -0.018,0.081 -0.027,0.162 -0.027,0.252 v 0.649 z"
           id="path3401"
           style="fill:#ffffff" />
        <path
           d="m 430.89,38.255 c 0,-0.576 -0.018,-1.072 -0.035,-1.477 h 1.188 l 0.063,0.611 h 0.019 c 0.323,-0.468 0.828,-0.711 1.467,-0.711 0.963,0 1.828,0.838 1.828,2.242 0,1.602 -1.018,2.358 -1.999,2.358 -0.531,0 -0.945,-0.216 -1.144,-0.505 h -0.018 v 2.188 h -1.369 v -4.706 z m 1.369,1.035 c 0,0.107 0.009,0.207 0.026,0.287 0.091,0.369 0.405,0.648 0.802,0.648 0.594,0 0.945,-0.494 0.945,-1.242 0,-0.702 -0.315,-1.233 -0.928,-1.233 -0.387,0 -0.729,0.288 -0.819,0.693 -0.018,0.071 -0.026,0.162 -0.026,0.243 v 0.604 z"
           id="path3403"
           style="fill:#ffffff" />
        <path
           d="m 436.263,39.983 c 0.252,0.152 0.774,0.332 1.18,0.332 0.414,0 0.585,-0.144 0.585,-0.369 0,-0.225 -0.136,-0.332 -0.648,-0.504 -0.909,-0.306 -1.261,-0.801 -1.251,-1.323 0,-0.819 0.702,-1.44 1.791,-1.44 0.514,0 0.973,0.117 1.242,0.252 l -0.242,0.945 c -0.198,-0.107 -0.576,-0.252 -0.955,-0.252 -0.332,0 -0.521,0.135 -0.521,0.36 0,0.207 0.171,0.315 0.711,0.504 0.838,0.288 1.188,0.712 1.197,1.359 0,0.819 -0.648,1.423 -1.908,1.423 -0.576,0 -1.09,-0.127 -1.423,-0.307 l 0.242,-0.98 z"
           id="path3405"
           style="fill:#ffffff" />
      </g>
      <g
         id="g3407">
        <path
           d="m 186.909,40.483 h -0.018 l -1.116,0.531 -0.225,-1.026 1.548,-0.72 h 1.135 v 5.852 h -1.324 v -4.637 z"
           id="path3409"
           style="fill:#ffffff" />
        <path
           d="m 194.484,42.167 c 0,1.81 -0.729,3.052 -2.224,3.052 -1.512,0 -2.179,-1.359 -2.188,-3.016 0,-1.692 0.72,-3.034 2.233,-3.034 1.567,0 2.179,1.395 2.179,2.998 z m -3.034,0.036 c -0.009,1.342 0.315,1.98 0.846,1.98 0.531,0 0.819,-0.666 0.819,-1.998 0,-1.297 -0.279,-1.98 -0.828,-1.98 -0.504,0 -0.846,0.639 -0.837,1.998 z"
           id="path3411"
           style="fill:#ffffff" />
        <path
           d="m 200.448,44.841 c -0.423,0.145 -1.224,0.343 -2.025,0.343 -1.107,0 -1.909,-0.279 -2.467,-0.819 -0.558,-0.522 -0.864,-1.314 -0.855,-2.206 0.009,-2.017 1.477,-3.169 3.466,-3.169 0.783,0 1.386,0.153 1.684,0.297 l -0.288,1.099 c -0.333,-0.145 -0.748,-0.261 -1.414,-0.261 -1.144,0 -2.008,0.647 -2.008,1.962 0,1.252 0.783,1.99 1.909,1.99 0.315,0 0.567,-0.036 0.675,-0.091 v -1.269 h -0.937 v -1.071 h 2.26 v 3.195 z"
           id="path3413"
           style="fill:#ffffff" />
        <path
           d="m 201.47,45.12 c 0.018,-0.288 0.036,-0.819 0.036,-1.314 v -5.077 h 1.368 v 2.512 h 0.018 c 0.261,-0.378 0.72,-0.621 1.333,-0.621 1.053,0 1.828,0.873 1.818,2.224 0,1.584 -1.008,2.376 -2.017,2.376 -0.513,0 -1.008,-0.188 -1.323,-0.711 h -0.018 l -0.054,0.612 h -1.161 z m 1.404,-1.873 c 0,0.091 0.009,0.172 0.027,0.243 0.09,0.369 0.405,0.648 0.801,0.648 0.585,0 0.945,-0.45 0.945,-1.242 0,-0.685 -0.306,-1.225 -0.945,-1.225 -0.369,0 -0.711,0.279 -0.801,0.676 -0.018,0.081 -0.027,0.162 -0.027,0.252 v 0.648 z"
           id="path3415"
           style="fill:#ffffff" />
        <path
           d="m 206.894,42.194 c 0,-0.576 -0.018,-1.071 -0.036,-1.477 h 1.188 l 0.063,0.612 h 0.018 c 0.324,-0.468 0.828,-0.711 1.467,-0.711 0.963,0 1.828,0.837 1.828,2.241 0,1.603 -1.018,2.358 -1.999,2.358 -0.531,0 -0.945,-0.216 -1.144,-0.504 h -0.018 v 2.188 h -1.368 v -4.707 z m 1.368,1.035 c 0,0.108 0.009,0.207 0.027,0.288 0.09,0.369 0.405,0.648 0.801,0.648 0.594,0 0.945,-0.495 0.945,-1.242 0,-0.702 -0.315,-1.233 -0.927,-1.233 -0.387,0 -0.729,0.288 -0.819,0.693 -0.018,0.071 -0.027,0.161 -0.027,0.242 v 0.604 z"
           id="path3417"
           style="fill:#ffffff" />
        <path
           d="m 212.272,43.923 c 0.252,0.153 0.774,0.333 1.18,0.333 0.414,0 0.585,-0.144 0.585,-0.369 0,-0.225 -0.135,-0.333 -0.648,-0.504 -0.91,-0.307 -1.261,-0.802 -1.251,-1.323 0,-0.819 0.702,-1.44 1.792,-1.44 0.513,0 0.972,0.116 1.242,0.252 l -0.243,0.945 c -0.198,-0.108 -0.576,-0.252 -0.954,-0.252 -0.333,0 -0.522,0.135 -0.522,0.359 0,0.207 0.171,0.315 0.711,0.505 0.837,0.288 1.188,0.711 1.197,1.359 0,0.819 -0.648,1.422 -1.908,1.422 -0.576,0 -1.089,-0.126 -1.423,-0.306 l 0.242,-0.981 z"
           id="path3419"
           style="fill:#ffffff" />
      </g>
      <g
         id="g3421">
        <path
           d="m 55.378,42.798 c -0.027,-0.729 -0.054,-1.612 -0.054,-2.494 h -0.027 c -0.189,0.774 -0.441,1.639 -0.675,2.35 l -0.738,2.368 H 52.813 L 52.165,42.671 C 51.967,41.96 51.76,41.096 51.616,40.304 h -0.018 c -0.036,0.819 -0.063,1.756 -0.108,2.512 l -0.108,2.305 h -1.27 l 0.387,-6.067 h 1.828 l 0.594,2.025 c 0.189,0.702 0.378,1.458 0.513,2.169 h 0.027 c 0.171,-0.702 0.378,-1.503 0.576,-2.178 l 0.648,-2.017 h 1.792 l 0.333,6.067 h -1.341 l -0.091,-2.322 z"
           id="path3423"
           style="fill:#ffffff" />
        <path
           d="m 60.354,45.12 -0.081,-0.441 h -0.027 c -0.288,0.352 -0.738,0.54 -1.26,0.54 -0.892,0 -1.422,-0.647 -1.422,-1.35 0,-1.144 1.026,-1.693 2.583,-1.684 v -0.063 c 0,-0.234 -0.126,-0.567 -0.801,-0.567 -0.45,0 -0.927,0.153 -1.215,0.333 l -0.252,-0.882 c 0.306,-0.171 0.909,-0.387 1.71,-0.387 1.467,0 1.936,0.864 1.936,1.899 v 1.53 c 0,0.423 0.018,0.828 0.063,1.071 h -1.234 z m -0.162,-2.08 c -0.72,-0.009 -1.278,0.162 -1.278,0.693 0,0.352 0.234,0.522 0.541,0.522 0.342,0 0.621,-0.225 0.711,-0.504 0.018,-0.072 0.027,-0.153 0.027,-0.234 V 43.04 z"
           id="path3425"
           style="fill:#ffffff" />
        <path
           d="m 62.608,42.122 c 0,-0.549 -0.018,-1.018 -0.036,-1.404 h 1.188 l 0.063,0.604 h 0.027 c 0.18,-0.279 0.63,-0.702 1.359,-0.702 0.9,0 1.576,0.594 1.576,1.891 v 2.61 h -1.369 v -2.439 c 0,-0.567 -0.198,-0.954 -0.693,-0.954 -0.378,0 -0.604,0.261 -0.693,0.513 -0.036,0.081 -0.054,0.216 -0.054,0.342 v 2.539 h -1.368 v -3 z"
           id="path3427"
           style="fill:#ffffff" />
        <path
           d="M 70.391,45.12 70.31,44.679 h -0.027 c -0.288,0.352 -0.738,0.54 -1.26,0.54 -0.891,0 -1.422,-0.647 -1.422,-1.35 0,-1.144 1.026,-1.693 2.583,-1.684 v -0.063 c 0,-0.234 -0.126,-0.567 -0.801,-0.567 -0.45,0 -0.927,0.153 -1.215,0.333 l -0.252,-0.882 c 0.306,-0.171 0.909,-0.387 1.71,-0.387 1.467,0 1.936,0.864 1.936,1.899 v 1.53 c 0,0.423 0.018,0.828 0.063,1.071 h -1.234 z m -0.162,-2.08 c -0.72,-0.009 -1.278,0.162 -1.278,0.693 0,0.352 0.234,0.522 0.541,0.522 0.342,0 0.621,-0.225 0.711,-0.504 0.018,-0.072 0.027,-0.153 0.027,-0.234 V 43.04 z"
           id="path3429"
           style="fill:#ffffff" />
        <path
           d="m 76.85,40.718 c -0.018,0.279 -0.036,0.648 -0.036,1.306 v 2.457 c 0,0.847 -0.171,1.54 -0.666,1.981 -0.486,0.414 -1.144,0.54 -1.792,0.54 -0.576,0 -1.188,-0.117 -1.584,-0.343 l 0.27,-1.035 c 0.279,0.162 0.765,0.333 1.278,0.333 0.648,0 1.144,-0.351 1.144,-1.161 v -0.288 h -0.018 c -0.261,0.369 -0.684,0.576 -1.188,0.576 -1.089,0 -1.864,-0.882 -1.864,-2.151 0,-1.414 0.918,-2.313 1.999,-2.313 0.603,0 0.981,0.261 1.206,0.621 h 0.018 l 0.045,-0.522 h 1.188 z m -1.405,1.792 c 0,-0.091 -0.009,-0.181 -0.027,-0.253 -0.099,-0.359 -0.36,-0.603 -0.738,-0.603 -0.495,0 -0.9,0.45 -0.9,1.251 0,0.657 0.324,1.171 0.9,1.171 0.351,0 0.63,-0.234 0.72,-0.559 0.036,-0.099 0.045,-0.243 0.045,-0.36 V 42.51 z"
           id="path3431"
           style="fill:#ffffff" />
        <path
           d="m 78.969,43.355 c 0.045,0.567 0.603,0.837 1.242,0.837 0.468,0 0.846,-0.063 1.215,-0.18 l 0.18,0.928 c -0.45,0.18 -0.999,0.27 -1.593,0.27 -1.495,0 -2.35,-0.864 -2.35,-2.241 0,-1.116 0.693,-2.35 2.224,-2.35 1.423,0 1.963,1.107 1.963,2.196 0,0.234 -0.027,0.441 -0.045,0.54 h -2.836 z m 1.612,-0.936 c 0,-0.333 -0.144,-0.891 -0.774,-0.891 -0.576,0 -0.811,0.521 -0.847,0.891 h 1.621 z"
           id="path3433"
           style="fill:#ffffff" />
        <path
           d="m 82.673,42.122 c 0,-0.549 -0.018,-1.018 -0.036,-1.404 h 1.152 l 0.063,0.594 h 0.027 c 0.189,-0.278 0.576,-0.692 1.333,-0.692 0.567,0 1.017,0.288 1.207,0.747 h 0.018 c 0.162,-0.226 0.36,-0.405 0.567,-0.531 0.243,-0.145 0.513,-0.216 0.837,-0.216 0.846,0 1.485,0.594 1.485,1.908 v 2.593 h -1.333 v -2.395 c 0,-0.64 -0.207,-1.009 -0.648,-1.009 -0.315,0 -0.541,0.217 -0.63,0.478 -0.036,0.099 -0.054,0.243 -0.054,0.351 v 2.575 h -1.333 v -2.467 c 0,-0.559 -0.198,-0.937 -0.63,-0.937 -0.351,0 -0.558,0.271 -0.639,0.495 -0.045,0.108 -0.054,0.234 -0.054,0.343 v 2.565 h -1.332 v -2.998 z"
           id="path3435"
           style="fill:#ffffff" />
        <path
           d="m 91.475,43.355 c 0.045,0.567 0.603,0.837 1.242,0.837 0.468,0 0.846,-0.063 1.215,-0.18 l 0.18,0.928 c -0.45,0.18 -0.999,0.27 -1.593,0.27 -1.495,0 -2.35,-0.864 -2.35,-2.241 0,-1.116 0.693,-2.35 2.224,-2.35 1.423,0 1.963,1.107 1.963,2.196 0,0.234 -0.027,0.441 -0.045,0.54 h -2.836 z m 1.611,-0.936 c 0,-0.333 -0.144,-0.891 -0.774,-0.891 -0.576,0 -0.811,0.521 -0.847,0.891 h 1.621 z"
           id="path3437"
           style="fill:#ffffff" />
        <path
           d="m 95.179,42.122 c 0,-0.549 -0.018,-1.018 -0.036,-1.404 h 1.188 l 0.063,0.604 h 0.027 c 0.18,-0.279 0.63,-0.702 1.359,-0.702 0.9,0 1.576,0.594 1.576,1.891 v 2.61 h -1.369 v -2.439 c 0,-0.567 -0.198,-0.954 -0.693,-0.954 -0.378,0 -0.604,0.261 -0.693,0.513 -0.036,0.081 -0.054,0.216 -0.054,0.342 v 2.539 h -1.368 v -3 z"
           id="path3439"
           style="fill:#ffffff" />
        <path
           d="m 101.935,39.457 v 1.261 h 0.981 v 1.009 h -0.981 v 1.593 c 0,0.531 0.126,0.774 0.54,0.774 0.171,0 0.306,-0.018 0.405,-0.036 l 0.009,1.035 c -0.18,0.072 -0.504,0.117 -0.891,0.117 -0.441,0 -0.81,-0.153 -1.026,-0.378 -0.252,-0.261 -0.378,-0.685 -0.378,-1.306 v -1.8 h -0.585 v -1.009 h 0.585 v -0.954 l 1.341,-0.306 z"
           id="path3441"
           style="fill:#ffffff" />
      </g>
      <g
         id="g3443">
        <path
           d="m 522.181,39.649 c 0,-0.701 0.406,-1.188 1.045,-1.467 v -0.027 c -0.567,-0.288 -0.846,-0.766 -0.846,-1.278 0,-0.99 0.891,-1.647 2.061,-1.647 1.369,0 1.936,0.792 1.936,1.504 0,0.504 -0.27,0.998 -0.846,1.287 v 0.027 c 0.566,0.215 1.071,0.701 1.071,1.458 0,1.062 -0.892,1.773 -2.251,1.773 -1.486,0 -2.17,-0.837 -2.17,-1.63 z m 3.025,-0.045 c 0,-0.514 -0.378,-0.818 -0.918,-0.963 -0.45,0.126 -0.711,0.449 -0.711,0.873 -0.01,0.424 0.314,0.819 0.828,0.819 0.487,0.001 0.801,-0.314 0.801,-0.729 z m -1.539,-2.772 c 0,0.396 0.359,0.647 0.828,0.792 0.314,-0.09 0.594,-0.378 0.594,-0.747 0,-0.36 -0.207,-0.72 -0.711,-0.72 -0.469,0 -0.711,0.306 -0.711,0.675 z"
           id="path3445"
           style="fill:#ffffff" />
        <path
           d="m 530.679,41.181 -0.55,-1.099 c -0.225,-0.423 -0.368,-0.738 -0.54,-1.089 h -0.018 c -0.127,0.351 -0.279,0.666 -0.469,1.089 l -0.504,1.099 h -1.566 l 1.756,-3.07 -1.693,-2.998 h 1.576 l 0.531,1.107 c 0.18,0.369 0.314,0.666 0.459,1.008 h 0.018 c 0.145,-0.387 0.262,-0.656 0.414,-1.008 l 0.514,-1.107 h 1.566 l -1.711,2.962 1.801,3.106 h -1.584 z"
           id="path3447"
           style="fill:#ffffff" />
        <path
           d="m 534.529,36.544 h -0.019 l -1.115,0.531 -0.226,-1.026 1.548,-0.72 h 1.135 v 5.852 h -1.323 v -4.637 z"
           id="path3449"
           style="fill:#ffffff" />
        <path
           d="m 542.099,38.228 c 0,1.809 -0.729,3.052 -2.223,3.052 -1.513,0 -2.18,-1.359 -2.188,-3.017 0,-1.691 0.72,-3.033 2.232,-3.033 1.567,-10e-4 2.179,1.395 2.179,2.998 z m -3.034,0.035 c -0.009,1.342 0.314,1.98 0.846,1.98 0.532,0 0.82,-0.666 0.82,-1.998 0,-1.297 -0.279,-1.98 -0.828,-1.98 -0.505,0 -0.846,0.638 -0.838,1.998 z"
           id="path3451"
           style="fill:#ffffff" />
        <path
           d="m 548.058,40.901 c -0.423,0.144 -1.225,0.342 -2.025,0.342 -1.107,0 -1.908,-0.279 -2.467,-0.819 -0.559,-0.522 -0.864,-1.314 -0.855,-2.206 0.01,-2.016 1.477,-3.168 3.467,-3.168 0.783,0 1.386,0.152 1.684,0.297 l -0.289,1.098 c -0.333,-0.144 -0.747,-0.261 -1.413,-0.261 -1.144,0 -2.008,0.648 -2.008,1.963 0,1.251 0.783,1.989 1.909,1.989 0.314,0 0.566,-0.035 0.675,-0.09 v -1.27 h -0.937 v -1.071 h 2.26 v 3.196 z"
           id="path3453"
           style="fill:#ffffff" />
        <path
           d="m 549.073,41.181 c 0.018,-0.289 0.035,-0.82 0.035,-1.314 v -5.078 h 1.369 V 37.3 h 0.018 c 0.262,-0.378 0.721,-0.621 1.332,-0.621 1.054,0 1.828,0.873 1.818,2.224 0,1.585 -1.008,2.377 -2.016,2.377 -0.514,0 -1.009,-0.188 -1.324,-0.712 h -0.018 l -0.055,0.613 h -1.159 z m 1.405,-1.873 c 0,0.09 0.009,0.171 0.026,0.243 0.091,0.369 0.405,0.647 0.802,0.647 0.585,0 0.945,-0.449 0.945,-1.242 0,-0.684 -0.307,-1.225 -0.945,-1.225 -0.369,0 -0.711,0.279 -0.802,0.676 -0.018,0.081 -0.026,0.162 -0.026,0.252 v 0.649 z"
           id="path3455"
           style="fill:#ffffff" />
        <path
           d="m 554.491,38.255 c 0,-0.576 -0.019,-1.072 -0.037,-1.477 h 1.189 l 0.063,0.611 h 0.018 c 0.324,-0.468 0.828,-0.711 1.468,-0.711 0.964,0 1.827,0.838 1.827,2.242 0,1.602 -1.018,2.358 -1.998,2.358 -0.531,0 -0.945,-0.216 -1.144,-0.505 h -0.019 v 2.188 h -1.367 v -4.706 z m 1.367,1.035 c 0,0.107 0.01,0.207 0.027,0.287 0.09,0.369 0.405,0.648 0.801,0.648 0.595,0 0.945,-0.494 0.945,-1.242 0,-0.702 -0.314,-1.233 -0.927,-1.233 -0.387,0 -0.729,0.288 -0.819,0.693 -0.018,0.071 -0.027,0.162 -0.027,0.243 v 0.604 z"
           id="path3457"
           style="fill:#ffffff" />
        <path
           d="m 559.863,39.983 c 0.252,0.152 0.774,0.332 1.18,0.332 0.414,0 0.585,-0.144 0.585,-0.369 0,-0.225 -0.135,-0.332 -0.648,-0.504 -0.909,-0.306 -1.26,-0.801 -1.251,-1.323 0,-0.819 0.702,-1.44 1.792,-1.44 0.513,0 0.972,0.117 1.242,0.252 l -0.244,0.945 c -0.197,-0.107 -0.576,-0.252 -0.953,-0.252 -0.334,0 -0.522,0.135 -0.522,0.36 0,0.207 0.171,0.315 0.711,0.504 0.837,0.288 1.188,0.712 1.197,1.359 0,0.819 -0.647,1.423 -1.908,1.423 -0.576,0 -1.089,-0.127 -1.423,-0.307 l 0.242,-0.98 z"
           id="path3459"
           style="fill:#ffffff" />
      </g>
      <g
         id="g3461">
        <circle
           cx="25.308001"
           cy="102.74"
           r="5.6739998"
           id="circle3463" />
        <polygon
           points="24.114,103.935 24.114,107.641 26.503,107.641 26.503,103.935 30.209,103.935 30.209,101.545 26.503,101.545 26.503,97.839 24.114,97.839 24.114,101.545 20.407,101.545 20.407,103.935 "
           id="polygon3465"
           style="fill:#414042" />
      </g>
      <g
         id="g3467">
        <circle
           cx="131.47099"
           cy="102.74"
           r="5.6739998"
           id="circle3469" />
        <polygon
           points="130.979,104.355 132.72,107.627 134.829,106.504 133.087,103.232 136.358,101.491 135.235,99.382 131.964,101.124 130.222,97.853 128.113,98.976 129.855,102.246 126.583,103.988 127.707,106.098 "
           id="polygon3471"
           style="fill:#414042" />
      </g>
      <g
         id="g3473">
        <circle
           cx="25.308001"
           cy="34.790001"
           r="5.6739998"
           id="circle3475" />
        <polygon
           points="23.736,35.408 22.255,38.806 24.446,39.76 25.926,36.362 29.324,37.843 30.278,35.652 26.881,34.172 28.361,30.774 26.171,29.819 24.691,33.217 21.293,31.736 20.338,33.927 "
           id="polygon3477"
           style="fill:#414042" />
      </g>
      <g
         id="g3479">
        <circle
           cx="131.47099"
           cy="34.790001"
           r="5.6739998"
           id="circle3481" />
        <polygon
           points="129.783,34.837 127.236,37.53 128.973,39.172 131.519,36.479 134.211,39.025 135.854,37.289 133.161,34.742 135.707,32.05 133.971,30.408 131.425,33.101 128.731,30.555 127.09,32.291 "
           id="polygon3483"
           style="fill:#414042" />
      </g>
      <g
         id="g3485">
        <circle
           cx="147.20399"
           cy="102.74"
           r="5.6739998"
           id="circle3487" />
        <polygon
           points="145.716,103.54 144.648,107.089 146.936,107.777 148.004,104.229 151.553,105.296 152.242,103.008 148.693,101.94 149.761,98.392 147.473,97.702 146.405,101.251 142.855,100.184 142.167,102.472 "
           id="polygon3489"
           style="fill:#414042" />
      </g>
      <g
         id="g3491">
        <circle
           cx="253.367"
           cy="102.74"
           r="5.6739998"
           id="circle3493" />
        <polygon
           points="254.153,104.235 257.691,105.337 258.401,103.056 254.862,101.954 255.964,98.415 253.682,97.705 252.581,101.244 249.042,100.144 248.332,102.425 251.871,103.525 250.77,107.064 253.052,107.774 "
           id="polygon3495"
           style="fill:#414042" />
      </g>
      <g
         id="g3497">
        <circle
           cx="147.20399"
           cy="34.791"
           r="5.6739998"
           id="circle3499" />
        <polygon
           points="145.54,35.077 143.402,38.104 145.354,39.482 147.492,36.455 150.519,38.592 151.897,36.64 148.87,34.503 151.007,31.475 149.055,30.097 146.917,33.125 143.89,30.987 142.511,32.939 "
           id="polygon3501"
           style="fill:#414042" />
      </g>
      <g
         id="g3503">
        <circle
           cx="253.367"
           cy="34.790001"
           r="5.6739998"
           id="circle3505" />
        <polygon
           points="252.134,35.944 252.013,39.648 254.401,39.727 254.522,36.022 258.227,36.145 258.305,33.756 254.601,33.635 254.722,29.931 252.334,29.853 252.213,33.557 248.508,33.435 248.43,35.823 "
           id="polygon3507"
           style="fill:#414042" />
      </g>
      <g
         id="g3509">
        <circle
           cx="269.021"
           cy="102.74"
           r="5.6739998"
           id="circle3511" />
        <polygon
           points="267.797,103.903 267.702,107.608 270.091,107.67 270.186,103.965 273.89,104.06 273.951,101.671 270.247,101.576 270.341,97.871 267.953,97.81 267.858,101.515 264.153,101.42 264.092,103.809 "
           id="polygon3513"
           style="fill:#414042" />
      </g>
      <g
         id="g3515">
        <circle
           cx="375.185"
           cy="102.74"
           r="5.6739998"
           id="circle3517" />
        <polygon
           points="374.083,104.021 374.36,107.716 376.743,107.537 376.466,103.842 380.16,103.564 379.981,101.182 376.287,101.459 376.01,97.763 373.627,97.942 373.904,101.638 370.208,101.915 370.388,104.298 "
           id="polygon3519"
           style="fill:#414042" />
      </g>
      <g
         id="g3521">
        <circle
           cx="269.021"
           cy="34.790001"
           r="5.6739998"
           id="circle3523" />
        <polygon
           points="267.827,35.984 267.827,39.69 270.216,39.69 270.216,35.984 273.922,35.984 273.922,33.595 270.216,33.595 270.216,29.889 267.827,29.889 267.827,33.595 264.121,33.595 264.121,35.984 "
           id="polygon3525"
           style="fill:#414042" />
      </g>
      <g
         id="g3527">
        <circle
           cx="375.185"
           cy="34.790001"
           r="5.6739998"
           id="circle3529" />
        <polygon
           points="373.519,35.065 371.359,38.077 373.302,39.47 375.461,36.457 378.472,38.615 379.864,36.673 376.853,34.515 379.011,31.502 377.068,30.11 374.91,33.123 371.897,30.964 370.506,32.906 "
           id="polygon3531"
           style="fill:#414042" />
      </g>
      <g
         id="g3533">
        <circle
           cx="390.84"
           cy="102.74"
           r="5.6729999"
           id="circle3535" />
        <polygon
           points="390.527,104.4 392.618,107.46 394.591,106.112 392.5,103.053 395.561,100.962 394.213,98.988 391.151,101.079 389.062,98.02 387.089,99.367 389.18,102.427 386.118,104.519 387.467,106.491 "
           id="polygon3537"
           style="fill:#414042" />
      </g>
      <g
         id="g3539">
        <circle
           cx="497.00299"
           cy="102.74"
           r="5.6739998"
           id="circle3541" />
        <polygon
           points="495.573,103.64 494.75,107.253 497.08,107.784 497.903,104.17 501.516,104.993 502.046,102.663 498.434,101.841 499.257,98.227 496.927,97.696 496.104,101.31 492.49,100.486 491.96,102.816 "
           id="polygon3543"
           style="fill:#414042" />
      </g>
      <g
         id="g3545">
        <circle
           cx="390.84"
           cy="34.790001"
           r="5.6739998"
           id="circle3547" />
        <polygon
           points="389.646,35.984 389.646,39.69 392.034,39.69 392.034,35.984 395.741,35.984 395.741,33.595 392.034,33.595 392.034,29.889 389.646,29.889 389.646,33.595 385.938,33.595 385.938,35.984 "
           id="polygon3549"
           style="fill:#414042" />
      </g>
      <g
         id="g3551">
        <circle
           cx="497.00299"
           cy="34.790001"
           r="5.6739998"
           id="circle3553" />
        <polygon
           points="495.651,35.803 495.124,39.471 497.489,39.811 498.017,36.143 501.684,36.669 502.023,34.304 498.356,33.777 498.884,30.108 496.518,29.769 495.991,33.437 492.322,32.91 491.982,35.275 "
           id="polygon3555"
           style="fill:#414042" />
      </g>
      <g
         id="g3557">
        <circle
           cx="512.65698"
           cy="102.74"
           r="5.6739998"
           id="circle3559" />
        <polygon
           points="511.463,103.935 511.463,107.641 513.852,107.641 513.852,103.935 517.559,103.935 517.559,101.545 513.852,101.545 513.852,97.839 511.463,97.839 511.463,101.545 507.756,101.545 507.756,103.935 "
           id="polygon3561"
           style="fill:#414042" />
      </g>
      <g
         id="g3563">
        <circle
           cx="618.82001"
           cy="102.74"
           r="5.6739998"
           id="circle3565" />
        <polygon
           points="617.394,103.645 616.585,107.262 618.917,107.783 619.726,104.167 623.342,104.976 623.863,102.644 620.248,101.835 621.057,98.218 618.726,97.696 617.916,101.313 614.299,100.504 613.777,102.836 "
           id="polygon3567"
           style="fill:#414042" />
      </g>
      <g
         id="g3569">
        <circle
           cx="512.65698"
           cy="34.790001"
           r="5.6739998"
           id="circle3571" />
        <polygon
           points="512.806,36.473 515.646,38.853 517.181,37.021 514.34,34.642 516.721,31.8 514.889,30.266 512.508,33.106 509.667,30.728 508.133,32.559 510.974,34.938 508.594,37.779 510.425,39.314 "
           id="polygon3573"
           style="fill:#414042" />
      </g>
      <g
         id="g3575">
        <circle
           cx="618.82001"
           cy="34.790001"
           r="5.6739998"
           id="circle3577" />
        <polygon
           points="617.191,35.236 615.356,38.456 617.433,39.64 619.268,36.42 622.486,38.254 623.67,36.178 620.45,34.343 622.285,31.123 620.209,29.94 618.374,33.16 615.154,31.325 613.972,33.401 "
           id="polygon3579"
           style="fill:#414042" />
      </g>
      <path
         d="m 709.177,33.587 c 0,3.178 -3.40812,5.754 -7.61137,5.754 h -56.19026 c -4.20325,0 -7.61137,-2.576 -7.61137,-5.754 v -8.944 c 0,-3.177 3.40812,-5.753 7.61137,-5.753 h 56.19026 c 4.20325,0 7.61137,2.576 7.61137,5.753 v 8.944 z"
         id="path3581"
         style="fill:#bcbec0" />
      <g
         transform="translate(0,2.1017631)"
         id="g3583">
        <flowRoot
           transform="matrix(1.0787973,0,0,1.0403197,6.4645334,11.692673)"
           id="flowRoot3334"
           xml:space="preserve"
           style="font-size:12px;font-style:normal;font-weight:normal;line-height:125%;letter-spacing:0px;word-spacing:0px;fill:#000000;fill-opacity:1;stroke:none;font-family:Sans"><flowRegion
             id="flowRegion3336"><rect
               width="61.619331"
               height="13.131983"
               x="588.91895"
               y="8.2913656"
               id="rect3338" /></flowRegion><flowPara
             id="flowPara3340"
             style="font-size:12px">NoviSwitch</flowPara></flowRoot>      </g>
    </g>
  </g>
</svg>
